<svg width="1500" height="500" viewBox="0 0 1500 500" fill="none" xmlns="http://www.w3.org/2000/svg">
<g style="mix-blend-mode:plus-lighter">
<path d="M317.364 338.296C279.087 358.094 175.475 308.048 127.629 282.2L296.674 257.156C271.183 226.009 249.311 194.525 295.915 174.959C342.165 155.542 450.453 199.707 484 229.404L296.674 257.156C322.621 288.861 352.318 320.216 317.364 338.296Z" fill="#FF00FF"/>
</g>
<g style="mix-blend-mode:plus-lighter">
<path d="M127.629 282.2L296.541 257.176C321.776 178.922 346.481 98.2534 398.207 94.1154C446.053 90.2877 484 182.658 484 229.404L296.541 257.176C272.676 331.18 248.337 403.024 200.223 405.94C156.667 408.58 134.228 323.447 127.629 282.2Z" fill="#00FFFF"/>
</g>
<path d="M1080.7 296.672C1080.7 297.653 1080.36 298.464 1079.68 299.104C1079 299.701 1078.25 300 1077.44 300C1076.59 300 1075.82 299.701 1075.14 299.104C1074.45 298.464 1074.11 297.653 1074.11 296.672C1074.11 295.691 1074.45 294.88 1075.14 294.24C1075.82 293.6 1076.59 293.28 1077.44 293.28C1078.25 293.28 1079 293.6 1079.68 294.24C1080.36 294.88 1080.7 295.691 1080.7 296.672ZM1098.89 300H1084.68V294.944H1089.54V281.056H1085.32V276H1094.21V276.576C1094.3 277.6 1094.36 278.539 1094.41 279.392C1094.49 280.203 1094.58 281.12 1094.66 282.144C1095.51 280.096 1096.88 278.475 1098.76 277.28C1100.68 276.043 1102.79 275.424 1105.09 275.424C1107.61 275.424 1109.59 276.085 1111.05 277.408C1112.5 278.731 1113.26 280.459 1113.35 282.592V294.944H1117.32V300H1103.11V294.944H1108.04V285.024C1107.95 283.872 1107.53 282.891 1106.76 282.08C1106.03 281.227 1104.86 280.757 1103.24 280.672C1102.13 280.672 1101.06 280.864 1100.04 281.248C1099.06 281.632 1098.18 282.165 1097.41 282.848C1096.65 283.531 1096.03 284.341 1095.56 285.28C1095.09 286.219 1094.85 287.243 1094.85 288.352V294.944H1098.89V300ZM1134.6 280.608C1133.41 280.608 1132.32 280.821 1131.34 281.248C1130.4 281.632 1129.59 282.187 1128.91 282.912C1128.39 283.509 1127.97 284.192 1127.63 284.96C1127.33 285.728 1127.16 286.56 1127.11 287.456C1129.12 286.731 1131.1 286.005 1133.07 285.28C1135.07 284.512 1137.08 283.765 1139.08 283.04C1138.49 282.315 1137.8 281.739 1137.03 281.312C1136.31 280.843 1135.5 280.608 1134.6 280.608ZM1142.73 297.184C1141.66 298.251 1140.45 299.083 1139.08 299.68C1137.72 300.277 1136.22 300.576 1134.6 300.576C1132.81 300.576 1131.13 300.256 1129.55 299.616C1128.01 298.933 1126.67 298.016 1125.51 296.864C1124.36 295.712 1123.45 294.389 1122.76 292.896C1122.12 291.36 1121.8 289.717 1121.8 287.968C1121.8 286.261 1122.12 284.64 1122.76 283.104C1123.45 281.568 1124.36 280.224 1125.51 279.072C1126.67 277.963 1128.01 277.088 1129.55 276.448C1131.13 275.765 1132.81 275.424 1134.6 275.424C1135.93 275.424 1137.18 275.701 1138.38 276.256C1139.62 276.768 1140.73 277.493 1141.71 278.432C1142.65 279.371 1143.48 280.501 1144.2 281.824C1144.93 283.104 1145.48 284.512 1145.87 286.048C1142.97 287.115 1140.06 288.181 1137.16 289.248C1134.3 290.315 1131.42 291.381 1128.52 292.448C1129.16 293.344 1129.99 294.069 1131.02 294.624C1132.09 295.136 1133.28 295.392 1134.6 295.392C1135.58 295.392 1136.48 295.221 1137.29 294.88C1138.1 294.539 1138.83 294.027 1139.47 293.344L1142.73 297.184ZM1166.1 300H1155.99V281.184H1150.62V276H1155.99V260.384H1161.3V276H1167.58V281.184H1161.3V294.944H1166.1V300ZM1197.01 284.64L1188.12 301.472C1186.37 298.059 1184.64 294.667 1182.93 291.296C1181.23 287.883 1179.5 284.469 1177.75 281.056H1172.05V276H1185.3V281.056H1183.06C1184 282.933 1185.02 284.96 1186.13 287.136C1187.24 289.312 1188.01 291.04 1188.44 292.32C1189.72 289.931 1190.78 287.947 1191.64 286.368C1192.49 284.747 1193.41 283.061 1194.39 281.312L1194.2 281.056H1189.91V276H1204.12V281.056H1200.47C1201.41 282.933 1202.32 284.811 1203.22 286.688C1204.12 288.523 1204.88 290.4 1205.52 292.32C1206.16 290.4 1206.91 288.523 1207.76 286.688C1208.66 284.811 1209.6 282.933 1210.58 281.056H1207V276H1220.69V281.056H1215.83C1214.12 284.512 1212.39 287.925 1210.64 291.296C1208.94 294.667 1207.23 298.059 1205.52 301.472L1197.01 284.64ZM1247.13 296.864C1245.98 298.016 1244.61 298.933 1243.03 299.616C1241.45 300.256 1239.77 300.576 1237.98 300.576C1236.19 300.576 1234.5 300.256 1232.92 299.616C1231.39 298.933 1230.04 298.016 1228.89 296.864C1227.74 295.712 1226.82 294.389 1226.14 292.896C1225.5 291.403 1225.18 289.76 1225.18 287.968C1225.18 286.261 1225.5 284.64 1226.14 283.104C1226.82 281.568 1227.74 280.224 1228.89 279.072C1230.04 277.963 1231.39 277.088 1232.92 276.448C1234.5 275.765 1236.19 275.424 1237.98 275.424C1239.77 275.424 1241.45 275.765 1243.03 276.448C1244.61 277.088 1245.98 277.963 1247.13 279.072C1248.28 280.224 1249.18 281.568 1249.82 283.104C1250.5 284.64 1250.84 286.261 1250.84 287.968C1250.84 289.717 1250.5 291.36 1249.82 292.896C1249.18 294.389 1248.28 295.712 1247.13 296.864ZM1232.67 293.216C1233.31 293.899 1234.07 294.432 1234.97 294.816C1235.87 295.2 1236.83 295.392 1237.85 295.392C1238.87 295.392 1239.83 295.2 1240.73 294.816C1241.63 294.432 1242.41 293.899 1243.1 293.216C1243.78 292.576 1244.31 291.808 1244.7 290.912C1245.08 290.016 1245.27 289.056 1245.27 288.032C1245.27 287.008 1245.08 286.048 1244.7 285.152C1244.31 284.256 1243.78 283.467 1243.1 282.784C1242.41 282.101 1241.63 281.568 1240.73 281.184C1239.83 280.8 1238.87 280.608 1237.85 280.608C1236.83 280.608 1235.87 280.8 1234.97 281.184C1234.07 281.568 1233.31 282.101 1232.67 282.784C1231.98 283.467 1231.45 284.256 1231.07 285.152C1230.68 286.048 1230.49 287.008 1230.49 288.032C1230.49 289.056 1230.68 290.016 1231.07 290.912C1231.45 291.808 1231.98 292.576 1232.67 293.216ZM1269.51 300H1255.3V294.944H1260.17V281.056H1255.94V276H1264.84L1265.09 279.328C1265.18 280.352 1265.2 280.821 1265.16 280.736C1265.16 280.651 1265.2 281.12 1265.29 282.144C1265.8 281.077 1266.44 280.139 1267.21 279.328C1268.02 278.475 1268.85 277.771 1269.7 277.216C1270.6 276.619 1271.45 276.171 1272.26 275.872C1273.12 275.573 1273.86 275.424 1274.5 275.424L1274.12 280.672C1273.05 280.672 1272.05 280.8 1271.11 281.056C1270.21 281.312 1269.43 281.675 1268.74 282.144C1267.72 282.827 1266.91 283.701 1266.31 284.768C1265.76 285.835 1265.48 287.029 1265.48 288.352V294.944H1269.51V300ZM1278.99 300V294.944H1283.85V257.056H1279.63V252H1289.17V286.496L1294.99 281.056H1292.62V276H1305.49V281.056H1301.52C1300.58 281.909 1299.66 282.784 1298.77 283.68C1297.87 284.576 1296.95 285.451 1296.01 286.304C1297.04 287.755 1298.06 289.205 1299.09 290.656C1300.15 292.064 1301.22 293.493 1302.29 294.944H1308.24V300H1295.37V294.944H1296.08C1295.44 294.091 1294.8 293.237 1294.16 292.384C1293.52 291.488 1292.9 290.613 1292.3 289.76L1289.17 292.704V294.944H1293.2V300H1278.99Z" fill="white"/>
<path d="M939.31 362V341.776H956.462V222.224H936.75V202H974.126C974.297 204.219 974.467 206.352 974.638 208.4C974.809 210.277 974.979 212.155 975.15 214.032C976.857 211.643 980.441 208.656 985.902 205.072C991.363 201.488 998.617 199.696 1007.66 199.696C1014.83 199.696 1021.57 201.061 1027.89 203.792C1034.2 206.352 1039.66 209.936 1044.27 214.544C1048.88 219.152 1052.46 224.528 1055.02 230.672C1057.75 236.645 1059.12 243.045 1059.12 249.872C1059.12 256.699 1057.75 263.184 1055.02 269.328C1052.46 275.472 1048.88 280.848 1044.27 285.456C1039.66 290.064 1034.2 293.733 1027.89 296.464C1021.57 299.024 1014.83 300.304 1007.66 300.304C1002.88 300.304 998.617 299.792 994.862 298.768C991.107 297.744 987.865 296.549 985.134 295.184C982.403 293.819 980.526 292.795 979.502 292.112C978.478 291.259 977.71 290.491 977.198 289.808C977.369 290.32 977.454 290.917 977.454 291.6C977.625 292.283 977.71 292.795 977.71 293.136V341.776H996.142V362H939.31ZM1007.66 220.432C1003.05 220.432 998.873 221.2 995.118 222.736C991.363 224.272 988.206 226.405 985.646 229.136C983.086 231.696 981.123 234.768 979.758 238.352C978.393 241.936 977.71 245.776 977.71 249.872C977.71 254.309 978.478 258.491 980.014 262.416C981.721 266.171 984.11 269.413 987.182 272.144C989.742 274.363 992.729 276.155 996.142 277.52C999.726 278.885 1003.57 279.568 1007.66 279.568C1011.76 279.568 1015.51 278.971 1018.93 277.776C1022.34 276.411 1025.33 274.619 1027.89 272.4C1030.96 269.84 1033.35 266.597 1035.05 262.672C1036.76 258.747 1037.61 254.48 1037.61 249.872C1037.61 245.093 1036.68 240.827 1034.8 237.072C1033.09 233.147 1030.7 229.819 1027.63 227.088C1025.07 225.04 1022.08 223.419 1018.67 222.224C1015.26 221.029 1011.59 220.432 1007.66 220.432Z" fill="white"/>
<path d="M934.832 298H878V277.776H895.92V222.224H878V202H917.168V277.776H934.832V298ZM919.984 164.88C919.984 168.805 918.619 172.048 915.888 174.608C913.157 176.997 910.171 178.192 906.928 178.192C903.515 178.192 900.443 176.997 897.712 174.608C894.981 172.048 893.616 168.805 893.616 164.88C893.616 160.955 894.981 157.712 897.712 155.152C900.443 152.592 903.515 151.312 906.928 151.312C910.171 151.312 913.157 152.592 915.888 155.152C918.619 157.712 919.984 160.955 919.984 164.88Z" fill="white"/>
<path d="M823.648 273.424C820.235 281.616 814.688 288.187 807.008 293.136C799.499 297.915 791.136 300.304 781.92 300.304C771.851 300.304 763.915 297.659 758.112 292.368C752.309 287.077 749.237 280.165 748.896 271.632V222.224H732V202H770.144V261.904C770.485 266.512 772.107 270.523 775.008 273.936C778.08 277.179 782.859 278.971 789.344 279.312C793.781 279.312 797.963 278.544 801.888 277.008C805.984 275.472 809.568 273.339 812.64 270.608C815.712 267.877 818.187 264.635 820.064 260.88C821.941 257.125 822.88 253.029 822.88 248.592V222.224H805.984V202H844.128V280.08H860V298H822.88V284.944L823.648 273.424Z" fill="white"/>
<path d="M709.784 362H652.952V341.776H672.408V294.928C672.408 294.075 672.408 293.221 672.408 292.368C672.579 291.515 672.835 290.576 673.176 289.552C672.664 290.235 671.811 291.088 670.616 292.112C669.421 292.965 667.459 294.075 664.728 295.44C661.997 296.805 658.755 297.915 655 298.768C651.245 299.792 647.064 300.304 642.456 300.304C635.288 300.304 628.547 299.024 622.232 296.464C615.917 293.733 610.456 290.064 605.848 285.456C601.24 280.848 597.571 275.472 594.84 269.328C592.28 263.184 591 256.699 591 249.872C591 243.045 592.28 236.645 594.84 230.672C597.571 224.528 601.24 219.152 605.848 214.544C610.456 209.936 615.917 206.352 622.232 203.792C628.547 201.061 635.288 199.696 642.456 199.696C651.501 199.696 658.584 201.317 663.704 204.56C668.824 207.632 672.579 210.789 674.968 214.032C675.139 212.325 675.309 210.533 675.48 208.656C675.651 206.608 675.821 204.389 675.992 202H714.136V222.224H693.656V341.776H709.784V362ZM642.456 220.432C638.019 220.432 633.923 221.2 630.168 222.736C626.584 224.101 623.512 226.064 620.952 228.624C618.221 231.184 616.088 234.341 614.552 238.096C613.187 241.68 612.504 245.605 612.504 249.872C612.504 254.651 613.357 259.003 615.064 262.928C616.941 266.853 619.501 270.181 622.744 272.912C625.304 274.96 628.205 276.581 631.448 277.776C634.861 278.971 638.531 279.568 642.456 279.568C646.893 279.568 650.904 278.8 654.488 277.264C658.243 275.728 661.4 273.68 663.96 271.12C666.691 268.389 668.739 265.232 670.104 261.648C671.64 258.064 672.408 254.139 672.408 249.872C672.408 245.435 671.555 241.339 669.848 237.584C668.312 233.829 666.179 230.672 663.448 228.112C660.717 225.723 657.56 223.845 653.976 222.48C650.563 221.115 646.723 220.432 642.456 220.432Z" fill="white"/>
<path fill-rule="evenodd" clip-rule="evenodd" d="M939.31 362H996.142V341.776H977.71V293.136C977.71 292.795 977.625 292.283 977.454 291.6C977.454 290.917 977.369 290.32 977.198 289.808C977.545 290.271 978.01 290.773 978.593 291.315C978.694 291.409 978.799 291.504 978.907 291.6C979.095 291.767 979.293 291.938 979.502 292.112C979.82 292.324 980.22 292.569 980.702 292.846C981.773 293.463 983.251 294.242 985.134 295.184C987.865 296.549 991.107 297.744 994.862 298.768C998.617 299.792 1002.88 300.304 1007.66 300.304C1014.83 300.304 1021.57 299.024 1027.89 296.464C1034.2 293.733 1039.66 290.064 1044.27 285.456C1048.88 280.848 1052.46 275.472 1055.02 269.328C1057.75 263.184 1059.12 256.699 1059.12 249.872C1059.12 243.045 1057.75 236.645 1055.02 230.672C1052.46 224.528 1048.88 219.152 1044.27 214.544C1039.66 209.936 1034.2 206.352 1027.89 203.792C1021.57 201.061 1014.83 199.696 1007.66 199.696C998.617 199.696 991.363 201.488 985.902 205.072C982.507 207.3 979.837 209.298 977.893 211.064C976.71 212.139 975.796 213.128 975.15 214.032L974.638 208.4C974.467 206.352 974.297 204.219 974.126 202H936.75V222.224H956.462V341.776H939.31V362ZM953.462 338.776H936.31V365H999.142V338.776H980.71V296.279C981.605 296.759 982.636 297.289 983.792 297.867C986.74 299.341 990.177 300.6 994.073 301.662C998.135 302.77 1002.67 303.304 1007.66 303.304C1015.2 303.304 1022.32 301.957 1029.01 299.244L1029.05 299.231L1029.08 299.218C1035.72 296.345 1041.5 292.468 1046.39 287.577C1051.27 282.695 1055.07 276.999 1057.78 270.515C1060.67 263.991 1062.12 257.1 1062.12 249.872C1062.12 242.649 1060.67 235.837 1057.77 229.47C1055.07 222.992 1051.27 217.302 1046.39 212.423C1041.49 207.526 1035.7 203.728 1029.04 201.025C1022.35 198.134 1015.21 196.696 1007.66 196.696C998.249 196.696 990.361 198.558 984.256 202.564C981.684 204.252 979.438 205.861 977.565 207.392C977.416 205.584 977.266 203.71 977.117 201.77L976.904 199H933.75V225.224H953.462V338.776ZM995.118 222.736C998.873 221.2 1003.05 220.432 1007.66 220.432C1011.59 220.432 1015.26 221.029 1018.67 222.224C1022.08 223.419 1025.07 225.04 1027.63 227.088C1030.7 229.819 1033.09 233.147 1034.8 237.072C1036.68 240.827 1037.61 245.093 1037.61 249.872C1037.61 254.48 1036.76 258.747 1035.05 262.672C1033.35 266.597 1030.96 269.84 1027.89 272.4C1025.33 274.619 1022.34 276.411 1018.93 277.776C1015.51 278.971 1011.76 279.568 1007.66 279.568C1003.57 279.568 999.726 278.885 996.142 277.52C992.729 276.155 989.742 274.363 987.182 272.144C984.11 269.413 981.721 266.171 980.014 262.416C978.478 258.491 977.71 254.309 977.71 249.872C977.71 245.776 978.393 241.936 979.758 238.352C981.123 234.768 983.086 231.696 985.646 229.136C988.206 226.405 991.363 224.272 995.118 222.736ZM982.779 261.249C984.307 264.585 986.429 267.457 989.159 269.888C991.438 271.86 994.119 273.477 997.233 274.725C1000.45 275.946 1003.92 276.568 1007.66 276.568C1011.44 276.568 1014.83 276.021 1017.87 274.966C1020.98 273.718 1023.65 272.102 1025.92 270.133L1025.94 270.114L1025.97 270.095C1028.65 267.856 1030.77 265.003 1032.3 261.476C1033.83 257.956 1034.61 254.1 1034.61 249.872C1034.61 245.494 1033.76 241.697 1032.11 238.414L1032.08 238.342L1032.05 238.268C1030.52 234.751 1028.4 231.801 1025.69 229.382C1023.44 227.589 1020.78 226.14 1017.68 225.056C1014.61 223.982 1011.28 223.432 1007.66 223.432C1003.39 223.432 999.602 224.143 996.254 225.513C992.864 226.899 990.076 228.797 987.835 231.188L987.802 231.223L987.767 231.257C985.524 233.501 983.785 236.207 982.561 239.42C981.335 242.64 980.71 246.116 980.71 249.872C980.71 253.927 981.405 257.711 982.779 261.249Z" fill="white"/>
<path fill-rule="evenodd" clip-rule="evenodd" d="M937.832 301H875V274.776H892.92V225.224H875V199H920.168V274.776H937.832V301ZM917.168 277.776V202H878V222.224H895.92V277.776H878V298H934.832V277.776H917.168ZM917.902 176.832L917.863 176.866C914.656 179.673 910.985 181.192 906.928 181.192C902.74 181.192 898.977 179.701 895.736 176.866L895.698 176.832L895.66 176.797C892.292 173.639 890.616 169.589 890.616 164.88C890.616 160.171 892.292 156.121 895.66 152.963C898.888 149.937 902.676 148.312 906.928 148.312C911.05 148.312 914.745 149.968 917.94 152.963C921.308 156.121 922.984 160.171 922.984 164.88C922.984 169.589 921.308 173.639 917.94 176.797L917.902 176.832ZM915.888 174.608C918.619 172.048 919.984 168.805 919.984 164.88C919.984 160.955 918.619 157.712 915.888 155.152C913.157 152.592 910.171 151.312 906.928 151.312C903.515 151.312 900.443 152.592 897.712 155.152C894.981 157.712 893.616 160.955 893.616 164.88C893.616 168.805 894.981 172.048 897.712 174.608C900.443 176.997 903.515 178.192 906.928 178.192C910.171 178.192 913.157 176.997 915.888 174.608Z" fill="white"/>
<path fill-rule="evenodd" clip-rule="evenodd" d="M820.2 280.049C821.523 277.973 822.673 275.765 823.648 273.424L822.88 284.944V298H860V280.08H844.128V202H805.984V222.224H822.88V248.592C822.88 253.029 821.941 257.125 820.064 260.88C818.187 264.635 815.712 267.877 812.64 270.608C809.568 273.339 805.984 275.472 801.888 277.008C797.963 278.544 793.781 279.312 789.344 279.312C782.859 278.971 778.08 277.179 775.008 273.936C772.107 270.523 770.485 266.512 770.144 261.904V202H732V222.224H748.896V271.632C749.237 280.165 752.309 287.077 758.112 292.368C763.915 297.659 771.851 300.304 781.92 300.304C791.136 300.304 799.499 297.915 807.008 293.136C812.494 289.601 816.891 285.238 820.2 280.049ZM819.88 285.631C816.781 289.481 813.028 292.825 808.633 295.658L808.626 295.662L808.619 295.667C800.61 300.763 791.685 303.304 781.92 303.304C771.321 303.304 762.588 300.509 756.091 294.585C749.64 288.704 746.269 281.009 745.898 271.752L745.896 271.692V225.224H729V199H773.144V261.79C773.454 265.71 774.82 269.057 777.24 271.93C779.581 274.363 783.451 275.985 789.423 276.312C793.476 276.303 797.259 275.598 800.795 274.214L800.815 274.207L800.835 274.199C804.608 272.784 807.868 270.836 810.647 268.366C813.427 265.894 815.67 262.959 817.381 259.538C819.038 256.224 819.88 252.591 819.88 248.592V225.224H802.984V199H847.128V277.08H863V301H819.88V285.631Z" fill="white"/>
<path fill-rule="evenodd" clip-rule="evenodd" d="M709.784 362V341.776H693.656V222.224H714.136V202H675.992C675.821 204.389 675.651 206.608 675.48 208.656C675.444 209.055 675.407 209.45 675.371 209.841C675.237 211.291 675.102 212.688 674.968 214.032C674.203 212.994 673.299 211.965 672.254 210.945C670.036 208.777 667.185 206.649 663.704 204.56C658.584 201.317 651.501 199.696 642.456 199.696C635.288 199.696 628.547 201.061 622.232 203.792C615.917 206.352 610.456 209.936 605.848 214.544C601.24 219.152 597.571 224.528 594.84 230.672C592.28 236.645 591 243.045 591 249.872C591 256.699 592.28 263.184 594.84 269.328C597.571 275.472 601.24 280.848 605.848 285.456C610.456 290.064 615.917 293.733 622.232 296.464C628.547 299.024 635.288 300.304 642.456 300.304C647.064 300.304 651.245 299.792 655 298.768C658.755 297.915 661.997 296.805 664.728 295.44C666.681 294.464 668.241 293.618 669.408 292.904C669.714 292.716 669.994 292.538 670.246 292.368C670.377 292.28 670.5 292.195 670.616 292.112C670.648 292.084 670.681 292.056 670.713 292.029C671.857 291.042 672.678 290.216 673.176 289.552C672.835 290.576 672.579 291.515 672.408 292.368V341.776H652.952V362H709.784ZM669.408 338.776V296.373C668.428 296.918 667.311 297.502 666.07 298.123C663.092 299.612 659.633 300.787 655.727 301.679C651.69 302.773 647.259 303.304 642.456 303.304C634.922 303.304 627.796 301.957 621.105 299.244L621.073 299.231L621.041 299.218C614.399 296.345 608.617 292.468 603.727 287.577C598.85 282.701 594.974 277.016 592.099 270.546L592.084 270.514L592.071 270.482C589.354 263.963 588 257.084 588 249.872C588 242.66 589.354 235.856 592.083 229.49L592.09 229.472L592.099 229.454C594.974 222.984 598.85 217.299 603.727 212.423C608.624 207.526 614.417 203.728 621.073 201.025C627.77 198.134 634.908 196.696 642.456 196.696C651.791 196.696 659.5 198.358 665.278 202.006C668.052 203.672 670.5 205.397 672.59 207.19C672.726 205.5 672.863 203.699 673 201.786L673.199 199H717.136V225.224H696.656V338.776H712.784V365H649.952V338.776H669.408ZM630.168 222.736C633.923 221.2 638.019 220.432 642.456 220.432C646.723 220.432 650.563 221.115 653.976 222.48C657.56 223.845 660.717 225.723 663.448 228.112C666.179 230.672 668.312 233.829 669.848 237.584C671.555 241.339 672.408 245.435 672.408 249.872C672.408 254.139 671.64 258.064 670.104 261.648C668.739 265.232 666.691 268.389 663.96 271.12C661.4 273.68 658.243 275.728 654.488 277.264C650.904 278.8 646.893 279.568 642.456 279.568C638.531 279.568 634.861 278.971 631.448 277.776C628.205 276.581 625.304 274.96 622.744 272.912C619.501 270.181 616.941 266.853 615.064 262.928C613.357 259.003 612.504 254.651 612.504 249.872C612.504 245.605 613.187 241.68 614.552 238.096C616.088 234.341 618.221 231.184 620.952 228.624C623.512 226.064 626.584 224.101 630.168 222.736ZM617.343 239.198C616.129 242.396 615.504 245.943 615.504 249.872C615.504 254.266 616.283 258.189 617.794 261.682C619.484 265.2 621.767 268.16 624.647 270.593C626.929 272.413 629.528 273.869 632.462 274.953C635.525 276.021 638.848 276.568 642.456 276.568C646.543 276.568 650.144 275.862 653.306 274.507L653.329 274.497L653.352 274.487C656.782 273.084 659.592 271.245 661.839 268.999C664.272 266.565 666.087 263.766 667.301 260.58L667.322 260.523L667.347 260.466C668.708 257.29 669.408 253.771 669.408 249.872C669.408 245.83 668.633 242.161 667.117 238.825L667.093 238.773L667.071 238.72C665.692 235.348 663.807 232.571 661.434 230.336C658.994 228.21 656.161 226.523 652.908 225.283L652.885 225.275L652.862 225.265C649.855 224.063 646.401 223.432 642.456 223.432C638.371 223.432 634.666 224.137 631.304 225.513L631.27 225.526L631.236 225.539C628.023 226.763 625.317 228.502 623.073 230.745L623.039 230.78L623.004 230.813C620.621 233.046 618.728 235.824 617.343 239.198Z" fill="white"/>
<ellipse cx="997.386" cy="250.617" rx="14.3861" ry="18.6173" fill="#00FFFF"/>
<g style="mix-blend-mode:plus-lighter">
<ellipse cx="1003.78" cy="251.186" rx="14.3861" ry="18.6173" fill="#FF00FF"/>
</g>
<ellipse cx="631.926" cy="250.617" rx="14.3861" ry="18.6173" fill="#00FFFF"/>
<g style="mix-blend-mode:plus-lighter">
<ellipse cx="638.32" cy="251.186" rx="14.3861" ry="18.6173" fill="#FF00FF"/>
</g>
</svg>
