<?xml version="1.0" encoding="UTF-8"?>
<svg id="Layer_1" xmlns="http://www.w3.org/2000/svg" version="1.1" viewBox="0 0 127 63">
  <!-- Generator: Adobe Illustrator 29.3.1, SVG Export Plug-In . SVG Version: 2.1.0 Build 151)  -->
  <defs>
    <style>
      .st0 {
        fill: #fff;
      }
    </style>
  </defs>
  <path class="st0" d="M71.5540009,48.6069984v13.8100014h-7.0719986v-9.5680008l-8.0589981.9449997c-1.7700005.2050018-2.5480003.7900009-2.5480003,1.8639984,0,1.5750008,1.4780006,2.2389984,4.6479988,2.2389984,1.9319992,0,4.072998-.2900009,5.9629974-.7900009l-3.6599998,5.2249985c-1.4790001.3320007-2.920002.4959984-4.4399986.4959984-6.4140015,0-10.0740013-2.5699997-10.0740013-7.132,0-4.0229988,2.8769989-6.1360016,9.4160004-6.8839989l8.6379967-1.012001c-.4669991-2.5320015-2.3619995-3.6329994-6.1300011-3.6329994-3.5369987,0-7.4430008.9119987-10.9370003,2.612999l1.1110001-6.1800003c3.2480011-1.3689995,6.9500008-2.0740013,10.6899986-2.0740013,8.2260017,0,12.4610023,3.4440002,12.4610023,10.0750008l-.0080032.0050011.0010071.0010071ZM7.9380002,31.3150005L.208,62.4160004h7.7300002l3.836-15.6279984,6.6499996,8.0390015h8.0600014l6.6500015-8.0390015,3.8359985,15.6279984h7.7299995l-7.7299995-31.1049995-14.5179996,17.3880005L7.934,31.3110008l.0040002.0039997ZM36.9700012.21l-14.5180016,17.3879996L7.9380002.21.208,31.3150005h7.7300002l3.836-15.6280003,6.6499996,8.0389996h8.0600014l6.6500015-8.0389996,3.8359985,15.6280003h7.7299995L36.9700012.21ZM90.1399994,48.3169975l-6.25-.9119987c-1.5619965-.2470016-2.1780014-.7470016-2.1780014-1.6170006,0-1.4099998,1.5199966-2.0320015,4.6470032-2.0320015,3.6200027,0,6.8680038.7470016,10.2829971,2.3639984l-.8619995-6.0940018c-2.7570038-.9949989-5.9219971-1.4910011-9.211998-1.4910011-7.6880035,0-11.8860016,2.6959991-11.8860016,7.5470009,0,3.776001,2.3030014,5.8889999,7.1959991,6.6360016l6.3349991.9539986c1.6029968.2480011,2.2610016.8699989,2.2610016,1.8650017,0,1.4099998-1.4779968,2.0740013-4.4810028,2.0740013-3.947998,0-8.2249985-.9529991-11.7200012-2.6539993l.6999969,6.093998c3.0029984,1.1220016,6.9100037,1.7849998,10.5699997,1.7849998,7.8960037,0,12.0069962-2.7799988,12.0069962-7.7150002,0-3.9399986-2.3030014-6.0569992-7.4000015-6.7999992l-.0099869-.0039978ZM100.3000031,34.0900002v28.3250008h7.0709991v-28.3240013l-7.0709991-.0009995ZM115.6340027,49.6850014l9.8330002-10.7439995h-8.8000031l-9.2959976,11.1139984,9.9120026,12.355999h8.9250031l-10.5739975-12.7299995-.0000076.0040016ZM99.3130035,24.5950012c0,4.5599995,3.6600037,7.1300011,10.0739975,7.1300011,1.5199966,0,2.9609985-.1669998,4.4400024-.4950008l3.6600037-5.2250004c-1.8899994.4960003-4.0309982.7900009-5.9629974.7900009-3.1660004,0-4.6480026-.6639996-4.6480026-2.2390003,0-1.0790005.7829971-1.6590004,2.5490036-1.8640003l8.0579987-.9449997v9.5670013h7.0719986v-13.8100014c0-6.6350002-4.2360001-10.0749998-12.4609985-10.0749998-3.7440033,0-7.4420013.7049999-10.6910019,2.0749998l-1.1119995,6.1779995c3.4950027-1.7010002,7.401001-2.6129999,10.9370041-2.6129999,3.7689972,0,5.6640015,1.1000004,6.1299973,3.6330004l-8.637001,1.0130005c-6.5390015.7469997-9.4169998,2.8600006-9.4169998,6.8829994l.0090027-.0039997-.0000076.0009995ZM79.5340042,23.1030006c0,5.7250004,3.2900009,8.6269989,9.7870026,8.6269989,2.5899963,0,4.7320023-.4160004,6.784996-1.3700008l.9029999-6.2609997c-1.973999,1.2000008-3.9899979,1.8220005-6.0049973,1.8220005-3.0439987,0-4.4020004-1.243-4.4020004-4.0230007v-8.2950001h10.7320023v-5.7629986h-10.7330093V2.948l-13.447998,7.1739998v3.4820004h6.3720016v9.4960003l.0080032.0039997.0009995-.0009995ZM72.5840073,20.4910011v1.4109993h-19.114006c.8619995,2.8729992,3.4230003,4.1870003,7.9700012,4.1870003,3.6200027,0,6.9929962-.7469997,9.9919968-2.1959991l-.8619995,6.0559998c-2.7569962,1.1599998-6.2509995,1.7849998-9.8290024,1.7849998-9.5,0-14.6800003-4.2299995-14.6800003-12.066,0-7.8379993,5.2639999-12.2349997,13.4059982-12.2349997s13.1190033,4.7709999,13.1190033,13.0620012l-.0049973-.0039997.003006-.0000019ZM53.3779984,17.0900002h12.0859985c-.637001-2.7509995-2.7319984-4.1879997-6.0800018-4.1879997-3.348999,0-5.3349991,1.3990002-6.0060005,4.1879997"/>
</svg>