<?xml version="1.0" encoding="UTF-8"?>
<svg id="Layer_1" xmlns="http://www.w3.org/2000/svg" version="1.1" viewBox="0 0 88 48">
  <!-- Generator: Adobe Illustrator 29.3.1, SVG Export Plug-In . SVG Version: 2.1.0 Build 151)  -->
  <defs>
    <style>
      .st0 {
        fill: #fff;
      }
    </style>
  </defs>
  <path class="st0" d="M3.9518199,20.0734997c-1.1687298-4.6368999,6.4035802-10.0173998,11.8158803-10.8380394,5.0450993-.76511,6.2505989,1.8449402,4.3444996,4.6122398-1.9060993,2.7674007-4.9533997,3.9211998-7.1653996,4.6893997.2294998-3.6898003.4833994-5.4821997-2.6434002-4.8682995-3.37467.6632996-4.2007399,1.6134996-4.2007399,1.6134996,1.9886894,4.4334002.2631197,12.0444002.4222198,17.4495993.0917802,1.3235016.0917802,3.4831009,1.8968902,3.4831009,2.0590296,0,6.9634295-1.5363998,6.9634295-1.5363998-3.0502996-2.8691998-2.8881998-6.2103996-2.6433992-13.8862,2.1356001,2.2304993,7.3428001-.3085003,8.6522999-1.2679996,1.2574997,2.6778984.9179001,8.2157001.6210995,11.4396992-.2661991,2.9216003.3059998,5.790802,6.6329994,4.2543983-1.3338985-1.230999-1.4470997-5.5347977-.9147987-9.4559975.5324001-3.9212017,2.1723003-9.3387012,7.0888996-9.838501.7649002-.0770998,1.4104996-.0677996,1.9366989-.2714996.884201-.3424006,1.4349022-1.0396004,1.6858025-2.2428999.3579979-1.7245007-.780201-3.8594599-3.0014-3.8594599-3.0595016,0-6.2047005,2.1503592-8.0312004,12.2171593.0794983-.9779987-.0612011-2.0331001-.0367012-2.6315994.0489006-1.3451996-.856699-1.882-1.9428005-1.7677994-1.2207985.1295986-1.8112984.3269997-1.8112984.3269997,1.6582985-1.3080997,3.9804993-4.2513008,4.4638996-8.7741203C28.6329002,3.8025401,26.3474998-.677083,19.7940006.084946,13.2068996.85006,7.6293602,4.8885002,4.2394199,8.1248102c-4.8615719,4.6338902-6.2811899,11.7203894-.2876,11.9486895Z"/>
  <path class="st0" d="M31.7714996,18.8889008c1.655201,5.4914989-.2539997,10.5418987.1560001,14.5617981.2539997,2.486702,1.450201,2.2028008,3.1757984,2.1441994,1.2422028-.0431976,2.7077026-.3886986,4.1395035-.8391991-3.328701-4.6646996-2.1753006-7.9811993-1.3462029-12.3498001.3305016-1.7430992.7863007-4.6646996-1.4470978-4.6646996-2.3619995.0031013-4.6780014,1.1477013-4.6780014,1.1477013Z"/>
  <path class="st0" d="M46.3471985,16.7383995c-1.1289978-.8143997-4.5341988.3394012-5.8038979,2.5699997-.608902,1.2032013-.9821014,4.6986008-.9118004,8.2003002.0796013,3.7793007,1.2942009,8.0706997,3.8581009,8.6075001,1.9580994.4103012,5.1828003-1.2556992,7.4132004-8.3514996,1.3185997-4.1958008,1.7775993-10.6837997,1.6826973-11.2978001,2.5639.0186005,4.665802-.4904995,5.9722023-1.3573999,1.1809998-.7867002,2.0589981-1.5888996,2.0589981-3.1253004,0-1.3203993-1.0891991-2.5451899-2.6922989-2.5883894-2.135601,1.5116901-3.6591988,2.2305899-5.5653,2.6902895-.6852989-4.8437095-2.4140015-5.2787194-4.0905991-4.2019997-1.6766014,1.0767097-1.9581032,5.7908001,1.2696991,7.8917999.6363983,6.3029003-1.4715996,13.4295998-3.3041992,13.7318993-1.7042007.2777004-2.0836029-7.6171989.1131973-12.7693996Z"/>
  <path class="st0" d="M59.0413017,27.1200008c.1896973,1.0334988.7587967,1.9375,1.3981972,1.9497986.9944.0247002,1.7072029-1.3543987,2.0866013-2.1595993,0-1.153801.0275993-5.9542999-.7342987-8.2588997.9147987-.3085003,3.1238022-.8268013,3.9652023-.8268013,1.0676956,0,2.7259979-.0369987,2.5668945,1.7708015-.2386017,2.7581997-.7955017,11.0509987-1.3309021,16.9097004,5.6418076,1.7061005,10.5767059,5.5716972,20.5630035,2.1317978,1.3155975,3.5942001-.3426971,7.4383011-4.3078003,7.7437019-4.9777985.385601-10.1758957-3.726799-17.0750961-6.3400002-1.8663025,4.3438988-5.5286026,6.6701012-8.7288017,6.9446983-3.7541008.3208008-6.3271027-1.9651985-6.3271027-4.8684006,0-5.7444992,5.4888-7.1481972,11.3782997-6.6668968,0,0,.0582008-2.8445015,0-4.9208012-1.0676994,2.6901989-2.4811974,4.5227985-5.7672005,3.5601978-3.5061989-1.0241966-4.4973984-7.0217991-2.9982986-15.141798.2050018-.6911011,1.5237007-1.7431011,5.9967003-1.0242996-.1437988.6694984-1.3218002,5.7383995-.6853981,9.1968002ZM62.0365982,38.8311996c-3.1237984-.4997978-5.7946968.0770988-5.7946968,2.7271996,0,2.1319008,2.1446991,3.7670021,3.8487968,1.6907005,1.7103004-2.0763016,1.9398003-4.2667999,1.9459-4.4179001Z"/>
</svg>