<?xml version="1.0" encoding="UTF-8"?>
<svg id="Layer_1" xmlns="http://www.w3.org/2000/svg" version="1.1" viewBox="0 0 720 145">
  <!-- Generator: Adobe Illustrator 29.3.1, SVG Export Plug-In . SVG Version: 2.1.0 Build 151)  -->
  <defs>
    <style>
      .st0 {
        fill: #fff;
      }
    </style>
  </defs>
  <path class="st0" d="M449.5,84h57c-.2999878,16.5-.2999878,30.2000122-12.2999878,43.0999756-10.7999878,11.6000366-27.4000244,17.9000244-43.2000122,17.9000244-31,0-56.0999756-19-56.0999756-51.4000244,0-32.8999634,24.3999634-52.6999512,56.3999634-52.6999512,17.7000122,0,41.9000244,8.6999512,49.9000244,25.8999634l-34.5,12.6000366c-2.7999878-5.1000366-8.1000366-7.8000488-14-7.8000488-13.2000122,0-20.5,11.2000122-20.5,23.4000244,0,11.0999756,7,21.5,19,21.5,5.7999878,0,13.2000122-2.7000122,15-8.7999878h-16.7000122v-23.7000122ZM369.9000244,42.5999756l36.2999878,100.8000488h-39.2000122l-3.4000244-12.6000366h-27.8999634l-3,12.6000366h-66l-5-55.2000122h-.7000122c-.7000122,3.2999878-1.2999878,6.7999878-2.4000244,10l-14.6999512,45.2000122h-21.6000366l-13.2000122-42.7000122c-1.0999756-4.2999878-2-8.2999878-2.2999878-12.6000366h-1.2000122c-.2999878,4-.5,8.2000122-.8999634,12.2000122l-4.2999878,43.1000366h-35.7000122l16.3999634-100.8000488h38l14,53h.9000244c.7000122-4.3999634,1.2999878-9.0999756,2.5999756-13.3999634l11.5-39.6000366h37.6000366l13.8800049,83.7700195,29.4199829-83.7700195h40.9000244ZM357.0999756,106.9000244l-4.2999878-17.8000488c-1.0999756-4.2999878-1.7999878-8.6999512-2.3999634-13h-1.3000488l-6.6999512,30.8000488h14.6999512ZM720,143.4000244h-39.0999756l-3.4000244-12.6000366h-27.9000244l-2.8999634,12.6000366h-70.7000122l-32.5-53h-1.0999756c1.1999512,7,2.2999878,13.5,2.2999878,20.1999512v32.8000488h-35.2999878V42.5999756h35.3999634l33.2000122,55.9000244h1.0999756c-1.5-8.4000244-3.0999756-17.0999756-3.0999756-25.7000122v-30.2000122h35.2999878v90.2300415l31.6000366-90.2300415h40.8999634l36.2000122,100.8000488ZM671.0999756,106.9000244l-4.2999878-17.8000488c-1.0999756-4.2999878-1.7000122-8.6999512-2.3999634-13h-1.4000244l-6.7000122,30.8000488h14.7999878ZM0,143.5h57.0999756l-28.5999756-77.7999878L0,143.5ZM109.7000122,42.7999878h-28.1000366l-5.0999756,14,31.7999878,86.7000122h38.2999878l-36.8999634-100.7000122ZM82.2999878,37c10.2999878,0,18.6000366-8.2999878,18.6000366-18.5S92.5999756,0,82.2999878,0s-18.5999756,8.2999878-18.5999756,18.5,8.2999878,18.5,18.5999756,18.5ZM37,42.7999878l-5.2000122,14,31.7999878,86.7000122h38.3000488l-36.9000244-100.7000122h-28Z"/>
</svg>