<?xml version="1.0" encoding="UTF-8"?>
<svg id="Layer_1" xmlns="http://www.w3.org/2000/svg" version="1.1" viewBox="0 0 249 27">
  <!-- Generator: Adobe Illustrator 29.3.1, SVG Export Plug-In . SVG Version: 2.1.0 Build 151)  -->
  <defs>
    <style>
      .st0 {
        fill: #fff;
      }
    </style>
  </defs>
  <path class="st0" d="M73.7070007,2.7709999l-4.1380005,17.5760002-4.4930038-17.5770001h-3.8849983l-4.4269981,17.5450006-4.1730003-17.5450006h-4.0099983l5.8089981,22.2899995h4.2970009l4.4630013-17.2289996,4.4300003,17.2280002h4.2979965l5.8089981-22.2880001h-3.9799957ZM91.3150024,21.4279995v-6.8800001c0-3.8859997-2.1839981-5.9520006-6.5479965-5.9520006-3.8499985,0-6.7080002,1.8769999-7.1559982,5.4470005h3.7220001c.2259979-1.75,1.4749985-2.6420002,3.4029999-2.6420002,1.927002,0,2.8880005,1.0500002,2.8880005,2.3559999,0,.7340002-.288002,1.3359995-1.4749985,1.5299997l-3.1149979.4440002c-2.7300034.4440002-5.9990005,1.3360004-5.9990005,5.0949993,0,2.7999992,2.0559998,4.6499996,5.2330017,4.6499996,2.1169968,0,4.2350006-.7639999,5.6490021-2.7999992v.3519993c0,1.2439995,1.0279999,2.039999,2.6620026,2.039999h2.375v-2.8979969h-.8679962c-.447998,0-.7710037-.2859993-.7710037-.7339993v-.0090008l-.0000153.0009995ZM87.625,17.9279995c0,2.6429996-1.5739975,4.7439995-4.1389999,4.7439995-1.6039963,0-2.663002-.7959995-2.663002-2.2290001s.9000015-2.132,2.9199982-2.4829998l2.4059982-.4139996c.5449982-.1270008.9970016-.2240009,1.4749985-.4790001v.8619995l.0010071-.0009995ZM98.2099991,2.7709999h-3.7220001v22.2889996h3.7220001V2.7709999ZM104.5530014,2.7709999h-3.7220001v22.2889996h3.7220001V2.7709999ZM114.1940002,8.5959997c-4.8160019,0-7.8639984,3.6309996-7.8639984,8.4399996,0,4.8099995,3.0479965,8.4360008,7.8639984,8.4360008,4.2360001,0,6.7389984-2.387001,7.2529984-5.4459991h-3.6589966c-.5139999,1.6569996-1.7330017,2.5450001-3.5630035,2.5450001-2.6930008,0-3.9469986-1.9740009-4.1729965-4.6159992h11.5859985c.2570038-6.941-3.2080002-9.3629999-7.4440002-9.3629999,0,0,0,.0039997,0,.0039978ZM110.1179962,15.4759998c.3550034-2.2600002,1.6039963-4.0139999,4.076004-4.0139999,2.2470016,0,3.5940018,1.21,3.7890015,4.0139999h-7.8650055ZM128.1999969,20.2849998v-8.4349995h3.4649963v-2.8360004h-3.4649963V3.6939998h-3.7210007v4.5240006c0,.5100002-.288002.7959995-.7710037.7959995h-1.7639999v2.835h2.5350037v9.2359991c0,2.7700005,1.3779984,3.9790001,4.0759964,3.9790001h3.5v-2.8969994h-2.1799927c-1.2539978,0-1.6699982-.5410004-1.6699982-1.8770008l-.0050049-.0049992ZM143.8919983,22.1620007c-3.8809967,0-6.3529968-3.4069996-6.3529968-8.2469997s2.4049988-8.2460003,6.3529968-8.2460003c3.0480042,0,4.9400024,2.0039997,5.4900055,4.9359999h4.0449982c-.5140076-4.743-3.8509979-8.2469997-9.5310059-8.2469997-5.9989929,0-10.4290009,4.5240002-10.4290009,11.5570002,0,7.0340004,4.3639984,11.5569992,10.4290009,11.5569992,5.0690002,0,8.8569946-2.737999,9.7259979-8.3430004h-4.0460052c-.4819946,3.0240002-2.6309967,5.0289993-5.6799927,5.0289993,0,0-.0039978.0039997-.0039978.0040016ZM162.701004,8.5959997c-5.0370026,0-7.9570007,3.6309996-7.9570007,8.4399996,0,4.8099995,2.9199982,8.4360008,7.9570007,8.4360008,5.0379944,0,7.927002-3.5960007,7.927002-8.4360008s-2.8889923-8.4399996-7.927002-8.4399996ZM162.701004,22.4790001c-2.9860077,0-4.1380005-2.5799999-4.1380005-5.4780006,0-2.8970003,1.1569977-5.4109993,4.1380005-5.4109993,2.9819946,0,4.1389923,2.5450001,4.1389923,5.4109993s-1.1569977,5.4780006-4.1390076,5.4780006h.0000153ZM181.4420013,8.5959997c-2.1799927,0-4.2669983,1.0199995-5.3610077,2.8359995v-2.4179993h-3.7220001v16.0499992h3.7220001v-9.0439987c0-2.4840002,1.7319946-4.3299999,4.0099945-4.3299999,2.0559998,0,3.4019928,1.3360004,3.4019928,3.7579994v9.6190014h3.7220001v-10.0620012c0-4.0749998-2.1490021-6.4000006-5.7769928-6.4000006l.0039978-.0089998h.0000153ZM198.7890015,8.5959997c-2.1799927,0-4.2669983,1.0199995-5.3609924,2.8359995v-2.4179993h-3.7220001v16.0499992h3.7220001v-9.0439987c0-2.4840002,1.7319946-4.3299999,4.0090027-4.3299999,2.0559998,0,3.4029999,1.3360004,3.4029999,3.7579994v9.6190014h3.7220001v-10.0620012c0-4.0749998-2.1490021-6.4000006-5.7779999-6.4000006l.0050049-.0089998h-.0000153ZM214.0469971,8.5959997c-4.8159943,0-7.8639984,3.6309996-7.8639984,8.4399996,0,4.8099995,3.0480042,8.4360008,7.8639984,8.4360008,4.2359924,0,6.7389984-2.387001,7.253006-5.4459991h-3.6600037c-.5140076,1.6569996-1.7319946,2.5450001-3.5619965,2.5450001-2.6940002,0-3.947998-1.9740009-4.173996-4.6159992h11.5859985c.2570038-6.941-3.2070007-9.3629999-7.4429932-9.3629999v.0039997l-.0000153-.0000019ZM209.970993,15.4759998c.3540039-2.2600002,1.6040039-4.0139999,4.076004-4.0139999,2.2460022,0,3.5930023,1.21,3.7879944,4.0139999h-7.8639984ZM230.378006,11.5900002c1.7980042,0,3.1139984,1.1470003,3.5,3.1520004h3.7519989c-.4819946-3.8859997-3.2070007-6.1459999-7.220993-6.1459999-4.8789978,0-7.9579926,3.6310005-7.9579926,8.4399986,0,4.8099995,3.0789948,8.4360008,7.9580078,8.4360008,4.2039948,0,6.7070007-2.355999,7.220993-5.7940006h-3.720993c-.5140076,1.8770008-1.7019958,2.7999992-3.5310059,2.7999992-2.7920074,0-4.1080017-2.5139999-4.1080017-5.4769993s1.3159943-5.4109993,4.1080017-5.4109993h-.0000153ZM246.0010071,22.1620007c-1.2539978,0-1.6710052-.5400009-1.6710052-1.8770008v-8.4349995h3.4649963v-2.8360004h-3.4649963V3.6939998h-3.720993v4.5240006c0,.5100002-.2879944.7959995-.7709961.7959995h-1.7640076v2.835h2.5350037v9.2359991c0,2.7700005,1.3769989,3.9790001,4.076004,3.9790001h3.4949951v-2.8969994h-2.1790009v-.0049992ZM31.7709999,10.2930002l3.8149986-3.7849998C26.9639988-2.0459995,16.2509995-2.0459995,7.6289978,6.5080004l3.8150005,3.7849998c6.5570011-6.506,13.7740002-6.506,20.3320007,0h-.0049992ZM30.5,19.1110001l-8.8959999-8.8269997-8.8970003,8.8269997L3.8099995,10.2840004l-3.8099995,3.7799997,12.7069998,12.6129999,8.8970003-8.8269997,8.8959999,8.8269997,12.7070007-12.6120005-3.8100014-3.7799997-8.8969994,8.8250008v.0009995Z"/>
</svg>