<?xml version="1.0" encoding="UTF-8"?>
<svg id="Layer_1" xmlns="http://www.w3.org/2000/svg" version="1.1" viewBox="0 0 600 118">
  <!-- Generator: Adobe Illustrator 29.3.1, SVG Export Plug-In . SVG Version: 2.1.0 Build 151)  -->
  <defs>
    <style>
      .st0 {
        fill: #fff;
      }
    </style>
  </defs>
  <path class="st0" d="M86.1052133,3.2007079c-.2386627-.2386614-.4881676-.4637624-.7458167-.6753031-1.8150066-1.4901375-4.0900819-2.3056777-6.4384295-2.3079637h-40.2768123c-2.3495477-.0004977-4.6266735.8131727-6.4438569,2.3025395-.2583567.2140055-.5054842.4412173-.7403935.6807273L2.9832668,31.6773456C1.0760976,33.5821403.0030921,36.1661338,0,38.8615959v40.2768123c.0016541,2.697345,1.0747692,5.2835525,2.9832668,7.1896756l28.4766376,28.4766376c.2368046.2378019.4857426.4631973.7458167.6753005,1.8171833,1.4893656,4.0943112,2.3030335,6.4438548,2.3025369h40.2713912c2.3476855-.0007532,4.6226863-.8143548,6.4384295-2.3025369.2576491-.2115404.507154-.4366378.7458167-.6753005l28.4766376-28.4766376c1.9084985-1.9061231,2.9816115-4.4923306,2.9832668-7.1896756v-40.2768123c-.0016553-2.697345-1.0747683-5.2835504-2.9832668-7.1896736L86.1052133,3.2007079ZM102.0250131,59.0013574v33.7760066c.0014981,5.2259311-4.233738,9.4635922-9.4596691,9.4650903H24.9970632c-5.225927,0-9.4623807-4.2364527-9.4623807-9.4623756,0-.0009104.000001-.0018126.000001-.0027147V25.2145043c0-5.225927,4.2364506-9.4623797,9.4623797-9.4623797h67.5628596c5.2259311-.001497,9.4635922,4.2337401,9.4650903,9.4596691v33.7895636ZM204.7144843,88.4706102c-26.6758253,0-29.7540242-11.491-29.7540242-18.1952144v-.751242h16.6222142c.2034046,3.0781864,1.9825157,8.0710912,15.1143091,8.0710912h.9573654c13.4057142,0,14.916334-2.6686668,14.916334-5.4024286,0-2.9425875-1.5729919-4.7895002-13.3379127-5.1312184l-8.75454-.2061151c-19.0142538-.5424121-24.8289126-6.9754205-24.8289126-14.916334v-.6156389c0-7.59377,4.5155877-15.5265476,27.7009922-15.5265476h4.7216904c24.0749684,0,29.5451902,8.4073882,29.5451902,16.0716704v.6915805h-16.5435704c-.3417223-1.9174289-1.3560304-6.0885755-14.7048019-6.0885755h-1.0848243c-12.3127623,0-13.2023096,2.1886309-13.2023096,4.3772658s1.3695874,4.1711507,11.7649207,4.3772658l8.5484207.1383136c19.1525715.3417182,26.8819446,4.9929048,26.8819446,15.1143174v.9573571c0,8.4073882-4.2416669,17.031738-29.832668,17.031738l-4.729818.0027147ZM274.1350947,88.3322924c-27.5626745-1.3560304-31.1886983-16.7551108-31.1886983-25.306238v-2.0584531c0-9.2345676,3.7616269-25.1706349,35.8398725-25.1706349h2.9425793c31.7311105,0,35.7720876,15.9360673,35.7720876,25.1706349v2.0503172c0,8.4073882-3.2843016,22.6402859-28.1810323,25.1028334l7.9354923,10.0536111h-23.1203011v-9.8420707ZM300.8109366,61.4530584c0-6.0858649-3.3521031-13.3379168-20.5872622-13.3379168-17.5090634,0-20.5872622,7.1815356-20.5872622,13.3379127v.8136182c0,6.0180634,3.3493884,13.815238,20.5872622,13.815238,17.0859826,0,20.5872622-7.658861,20.5872622-13.679635v-.9492171ZM354.6371979,88.3322924c-27.2887537,0-31.7311105-17.3571886-31.7311105-26.9470355v-24.6797526h16.0011583v23.7196849c0,6.5658967,2.9398646,14.7047936,16.8147765,14.7047936,13.6796184,0,16.6900323-8.1361822,16.6900323-14.7047936v-23.7305313h15.9550413v24.6797526c0,9.5762858-5.1990323,26.9470314-31.2592146,26.9470314l-2.4706833.0108506ZM437.7401745,78.2786813h-30.846976l-4.5833892,9.302365h-16.2099922l25.7184599-50.8863967h20.6550637l27.2209522,50.886405h-17.1673576l-4.7867607-9.3023733ZM422.0102223,47.7056178l-9.4406993,19.0820594h19.2881746l-9.8474753-19.0820594ZM462.8402767,36.6946579h33.7217538c29.4773721,0,35.9076906,12.6517616,35.9076906,24.0749601v2.053032c0,10.9431667-6.0885631,24.7584047-35.8398891,24.7584047h-33.7895553v-50.8863967ZM478.7790628,75.3415232h16.5435704c18.0568884,0,20.4489445-7.9354882,20.4489445-13.1345081v-.4095197c0-5.1963093-2.1181353-13.063996-20.4489445-13.063996h-16.5435704v26.6080238ZM565.4347993,88.4706102c-26.6731106,0-29.7512929-11.491-29.7512929-18.1952144v-.751242h16.6195161c.2061193,3.0781864,1.9852139,8.0710912,15.1170238,8.0710912h.9573654c13.4056976,0,14.916334-2.6686668,14.916334-5.4024286,0-2.9425875-1.5730085-4.7895002-13.3378961-5.1312184l-8.75454-.2061151c-19.0142538-.5424121-24.8289292-6.9754205-24.8289292-14.916334v-.6156389c0-7.59377,4.5155877-15.5265476,27.7009591-15.5265476h4.7189592c24.0776831,0,29.5478884,8.4073882,29.5478884,16.0716704v.6915805h-16.5435704c-.3417223-1.9174289-1.3560304-6.0885755-14.7047853-6.0885755h-1.0848243c-12.3100476,0-13.1996115,2.1886309-13.1996115,4.3772658s1.3560304,4.1711507,11.7649207,4.3772658l8.5484207.1383136c19.1526046.3417182,26.879263,4.9929048,26.879263,15.1143174v.9573571c0,8.4073882-4.2389191,17.031738-29.8190944,17.031738l-4.7461063.0027147Z"/>
</svg>