<?xml version="1.0" encoding="UTF-8"?>
<svg id="Layer_1" xmlns="http://www.w3.org/2000/svg" version="1.1" viewBox="0 0 300 76">
  <!-- Generator: Adobe Illustrator 29.3.1, SVG Export Plug-In . SVG Version: 2.1.0 Build 151)  -->
  <defs>
    <style>
      .st0 {
        fill: #fff;
      }
    </style>
  </defs>
  <path class="st0" d="M45.0756645,17.7404308C45.0756645,8.1507692,36.6469269.1949313,26.3859367.1949313,16.1230907.1949313,7.6924977,8.1544781,7.6924977,17.738575v5.6098862H0v40.3355446l26.3803749,12.1210632,26.3952065-12.1173553V23.526495h-7.6925011l-.0055656-5.78792s-.0018539.0018559-.0018501.0018559ZM17.2209587,17.7404308c0-4.5212898,4.0335541-8.1394348,9.1649761-8.1394348s9.1612682,3.618145,9.1612682,8.1394348v5.6080322h-18.3243904v-5.6080322s-.0018559,0-.0018539,0ZM42.1455421,57.1746826l-15.767025,7.2399979-15.7614613-7.234436v-24.2439804h31.5266323v24.2384186h.0018539ZM74.2155533,23.3484612h33.1697235v9.5878029h-11.3625641v30.9294815h-10.6281815v-30.9294815h-11.1789703s0-9.5878067-.0000076-9.5878029ZM145.5046844,36.9141846c0-8.1412888-5.6822205-13.3858376-14.1109467-13.3858376h-19.2442245v40.3355484h10.630043v-13.5638695h4.0317078l7.512619,13.5638695h12.2898254l-8.979538-15.0103874c3.8388367-1.4465179,7.8705444-5.2482567,7.8705292-11.9393234h-.0000153ZM130.1196899,40.893959h-7.3401413v-8.1412888h7.3308792c2.7483826,0,4.5806427,1.6301117,4.5806427,3.9816284,0,2.5314026-1.8322449,4.1596603-4.5806427,4.1596603h.0092621ZM150.4506531,23.3484592h29.6888123v9.406065h-19.0606384v5.9696617h18.5117035v9.2243233h-18.5117035v6.5093231h19.0606384v9.407917h-29.6888123V23.3484592ZM239.6988373,22.8032341c-12.460434,0-21.252655,8.8645477-21.252655,20.8038712,0,11.9374657,8.9739532,20.8075829,21.252655,20.8075829s21.4418182-8.8626938,21.4418182-20.8020096-8.9795227-20.8075771-21.4418182-20.8075771v-.0018673ZM239.6988373,55.0030556c-6.2292938,0-10.4464417-4.7030296-10.4464417-11.3866768,0-6.8746605,4.2171478-11.3903885,10.4464417-11.3903885,6.2311401,0,10.6300354,4.7048874,10.6300354,11.3885345,0,6.6855011-4.39888,11.3866768-10.6300354,11.3866768v.0018539ZM291.0130615,48.853508c3.8462524-1.4465179,7.8816528-5.2482567,7.8816528-11.9393196,0-8.1412888-5.6821899-13.3858376-14.112793-13.3858376h-19.240509v40.3355446h10.6282043v-13.5638695h4.039093l7.5126038,13.5638695h12.2786865l-8.9869385-15.0103874ZM283.4985962,40.8939629h-7.32901v-8.1412888h7.32901c2.7520752,0,4.582489,1.6301117,4.582489,3.9816284,0,2.5314026-1.8303833,4.1596603-4.582489,4.1596603ZM185.2708893,23.3484631h31.3374786v8.1394348l-17.0429382,22.7919025h17.0429382v9.5859489h-31.3374786v-8.1412888l17.042923-22.7881927h-17.0429382v-9.5878067l.0000153.0000019Z"/>
</svg>