<?xml version="1.0" encoding="UTF-8"?>
<svg id="Layer_1" xmlns="http://www.w3.org/2000/svg" version="1.1" viewBox="0 0 300 89">
  <!-- Generator: Adobe Illustrator 29.3.1, SVG Export Plug-In . SVG Version: 2.1.0 Build 151)  -->
  <defs>
    <style>
      .st0 {
        fill: #fff;
      }
    </style>
  </defs>
  <path class="st0" d="M148.3048664,41.767977c-3.0889056-1.2788199-6.8615298-2.3449297-11.3182283-3.2001082h-.0946929c-4.3297115-.786663-7.5775288-1.5091208-9.7423846-2.1670076-2.1648558-.6539389-3.8676866-1.5403271-5.1099157-2.6570127-1.2425985-1.1145304-1.8617426-2.6570127-1.8617426-4.6267251,0-2.8876694,1.0510369-5.0858832,3.1513318-6.595004,2.1024296-1.5091208,4.8713633-2.2645775,8.3089497-2.2645775,3.7575582,0,6.7955184.9839582,9.1214343,2.9536705,2.0870214,1.768832,3.3654856,4.0158325,3.8350504,6.7374163.0929003.5427363.5380666.9430637,1.0721923.9488041l10.5681563.0821482c.6478393.005737,1.1665431-.568209,1.102338-1.2339879-.3540585-3.6409709-1.5188091-6.951926-3.4924727-9.9314249-2.1971362-3.3127477-5.2218367-5.8898769-9.0740878-7.7289417-3.8522648-1.8370978-8.2293228-2.7566319-13.1326108-2.7566319-4.6478907,0-8.8334008.886354-12.5590343,2.6590243-3.7234714,1.7726703-6.6211849,4.2325691-8.691334,7.3835349-2.0701628,3.1509657-3.1039853,6.6943666-3.1039853,10.6319987,0,4.3322191.9222709,7.8114149,2.7689338,10.4350662,1.8463207,2.6258065,4.2651506,4.6112999,7.257557,5.956487,2.99242,1.3451871,6.5889044,2.4109342,10.7916289,3.1997524l.4774604.0975734c4.4545365.8533859,7.7841428,1.6088426,9.981279,2.2649333,2.1967804.6578833,3.9297433,1.5754812,5.2046223,2.7563787,1.2727306,1.1812534,1.909089,2.7897402,1.909089,4.8240169,0,2.889462-1.1460993,5.152247-3.4375863,6.7923027-2.2918291,1.6418415-5.2537613,2.4618727-8.8828956,2.4618727-4.3315041,0-7.8315029-1.1324701-10.5057301-3.3970476-2.4335264-2.0597493-3.8655245-4.7049254-4.295269-7.9340915-.0738933-.5585241-.5248069-.9821656-1.0704134-.9900612l-10.5548692-.1639337c-.6421057-.0096814-1.1611653.5488359-1.1116705,1.2085186.2991722,3.9709936,1.503743,7.5495451,3.6137125,10.7356684,2.3237675,3.5121912,5.5228015,6.2689326,9.5985389,8.2698546,4.0739448,2.0030704,8.7537602,3.002813,14.039802,3.002813,4.9015091,0,9.2957815-.9175978,13.1799709-2.7567345,3.8827389-1.8369883,6.9246675-4.3810058,9.1214479-7.6295415,2.1971362-3.2485426,3.2955196-6.9070905,3.2955196-10.9778059,0-4.3322225-.9563303-7.8268367-2.8654193-10.485642-1.909089-2.6570127-4.4093521-4.6270843-7.4964651-5.9077037l.0017926.0021484ZM213.2052999,68.3011645h-1.6493813c-.9545377,0-1.7046098-.2615003-2.2444827-.7884556-.5416655-.5233701-.8124983-1.3785486-.8124983-2.5594462v-18.8046357c0-5.9719156-1.8466628-10.5168517-5.5378675-13.6348186-3.6933394-3.1158117-8.0417021-4.7049254-14.8544486-4.7049254-6.4317853,0-11.4566826,1.4409645-15.4036403,4.261911-3.5982907,2.5730754-5.7670874,6.0971067-6.5096333,10.5774785-.1155062.6969852.3960272,1.3354989,1.0797321,1.3354989h9.7065189c.4867792,0,.9222572-.3300158,1.0510369-.814284.4433737-1.6572701,1.4205173-3.0103529,2.9321422-4.0588788,1.7498215-1.2142591,3.8293031-1.8212039,6.5681048-1.8212039,5.164802,0,8.8373418,3.2815414,8.8373418,8.170126v1.5288531c0,.6245218-.4907202,1.1303149-1.0965908,1.1303149h-8.7917879c-7.1309257,0-12.5439682,1.4445531-16.2351592,4.3318599-3.6933394,2.889462-5.5400159,6.9913836-5.5400159,12.3054159,0,4.5958712,1.6877648,8.2056358,5.0625692,10.8292939,2.5325435,1.9679163,5.5590366,3.1043342,8.6744891,3.601869,2.3808022.3809612,4.8258095.5194222,7.2123452.1251945,2.4998936-.4121674,4.5302361-1.4739668,6.5623712-2.9891838,1.8258632-1.3588232,3.3486133-3.1000306,4.7386427-5.2243477.6783271-1.2006298,2.4564881-.7181543,2.4564881.6697199v1.6691067c-.0017926,3.0340261,2.3825948,5.4937505,5.3258621,5.4937505h8.4678614c.6062264,0,1.0966045-.5054372,1.0966045-1.1303217v-8.371369c0-.6245218-.4903781-1.1303149-1.0966045-1.1303149v.0017926ZM196.3700173,58.1613295c0,2.4285113-.4943054,4.5445769-1.4811372,6.3485595-2.0680008,3.7837424-5.76888,5.7591986-9.9339462,5.7591986-2.420253,0-4.3616225-.5893746-5.8255452-1.770628-1.4660848-1.1808907-2.1971499-2.7567345-2.1971499-4.7264503,0-2.2294235.8124983-3.9534097,2.4356885-5.1676688,1.6231902-1.2124596,3.9300991-1.8215596,6.9243117-1.8215596h8.9811874c.6058706,0,1.0965908.5057862,1.0965908,1.1303149v.2482337ZM248.5898347,10.0489348h-12.6307792c-6.6631535,0-12.0647289,5.5679277-12.0647289,12.4362379v5.4643266c0,.6245253-.4903507,1.1303183-1.0965771,1.1303183h-7.2119894c-.6062538,0-1.0966045.5057896-1.0966045,1.1303149v8.468939c0,.6248845.4903507,1.1306775,1.0966045,1.1306775h7.2119894c.6062264,0,1.0965771.5054304,1.0965771,1.1303149v36.8631472c0,.6245218.4907338,1.1303149,1.0966045,1.1303149h9.8410322c.6062264,0,1.0966045-.505793,1.0966045-1.1303149v-36.8631472c0-.6248845.4907065-1.1303149,1.0966045-1.1303149h11.4681634c.6058706,0,1.0965771-.505793,1.0965771-1.1306775v-8.468939c0-.6245253-.4907065-1.1303149-1.0965771-1.1303149h-11.4681634c-.605898,0-1.0966045-.505793-1.0966045-1.1303183v-4.9101094c0-1.2494097.9832466-2.2606331,2.1931815-2.2606331h10.4662793c.6058706,0,1.0966045-.5057896,1.0966045-1.1303149v-8.4691203c0-.6247408-.4907338-1.1303867-1.0966045-1.1303867h.0018063ZM296.803128,39.2591135c-2.132589-3.6743324-5.0475168-6.4970714-8.7387078-8.467143-3.6933257-1.9679198-7.9602826-2.9809358-12.7975592-2.9809358-4.837304,0-9.0113195,1.0951642-12.7028663,3.2270143-3.6929973,2.1340053-6.5587724,5.152247-8.5948621,9.0565176-2.0378687,3.9067816-3.0566115,8.4829274-3.0566115,13.7345404s1.0510369,9.6326188,3.1513044,13.5372452c2.1024569,3.9042706,5.109943,6.9070905,9.0249487,9.0077343,3.9146773,2.1006438,8.5152215,3.1509623,13.801277,3.1509623,4.0739311,0,7.7199377-.7712412,10.9358303-2.3133608,3.2141137-1.5403271,5.8087003-3.6585479,7.7820081-6.3489221,1.6895574-2.3036794,2.8431692-4.8261789,3.4605343-7.5649738.1610601-.7106213-.3598058-1.3939772-1.0682513-1.3939772h-9.8865997c-.4735194,0-.8881705.3160308-1.0395697.7787742-.6969784,2.1221687-1.9262898,3.7991711-3.6897405,5.0292077-1.9751141,1.3781859-4.4262107,2.0672823-7.3540562,2.0672823-2.4206088,0-4.5359834-.5251627-6.3503658-1.5754812-1.8143824-1.0481701-3.2463805-2.5260847-4.2974174-4.4294333-.4150342-.7518715-.7540131-1.5464301-1.0248458-2.3642993-.2898534-.878496-.4979042-1.784613-.6421057-2.7022108-.0491528-.3199787-.0947203-.6442541-.1323785-.9681806-.0738933-.6675715.4394464-1.2515615,1.0908572-1.2515615h34.0931529c.5531327,0,1.0266521-.4214931,1.0890509-.9896986.0473465-.4157526.0796406-.8393941.0964992-1.274879.0322941-.786663.0473465-1.5091208.0473465-2.1648558,0-4.8555857-1.0660892-9.1210853-3.1986782-12.7975661l.0018063-.0017994ZM286.5585288,47.9214034h-21.3522453c-.7009193,0-1.2293114-.6697268-1.0739986-1.374245.3407851-1.5442749.9319592-2.9382453,1.7727832-4.1876516,1.0815247-1.6070569,2.483035-2.8388861,4.2027244-3.6919162,1.7196895-.8530233,3.5964981-1.2806194,5.6343667-1.2806194,3.3105856,0,6.049401.9193904,8.2142567,2.7563787,1.8577879,1.5776364,3.081352,3.7094933,3.6743324,6.3977123.1553128.7066734-.369494,1.3803412-1.0722197,1.3803412ZM81.2614646,44.4734172h-9.3599934c-2.7954806,0-5.060414,2.3352483-5.060414,5.2168147v14.0035805c0,2.8815732-2.265296,5.2164589-5.0607766,5.2164589H24.5429937c-2.7954806,0-5.0604174,2.3348857-5.0604174,5.216452v9.6484032c0,2.8815664,2.2649368,5.216452,5.0604174,5.216452h39.3924545c2.7958433,0,5.0284893-2.3348857,5.0284893-5.216452v-7.7407441c0-2.8815732,2.265296-4.9259007,5.0607766-4.9259007h7.2349511c2.7954806,0,5.0607766-2.3348857,5.0607766-5.216452v-16.2624177c0-2.8815732-2.265296-5.1561948-5.0607766-5.1561948h.0017994ZM19.4811429,25.3061191c0-2.8815698,2.265296-5.2164589,5.0607732-5.2164589h37.2146913c2.7954806,0,5.060414-2.3348857,5.060414-5.2165273V5.2249145C66.8170214,2.3433447,64.552088.0084214,61.7566074.0084214H22.3845933c-2.7954772,0-5.060414,2.3349233-5.060414,5.2164931v7.4343297c0,2.8815698-2.265296,5.2164178-5.0607732,5.2164178h-7.2027408c-2.7955148,0-5.0606654,2.3348857-5.0606654,5.2164589v16.2803505c0,2.8815664,2.2746216,5.0991532,5.0701347,5.0991532h9.3599575c2.7954396,0,5.0607355-2.3348857,5.0607355-5.216452l-.0096848-13.9469016v-.0021518ZM38.7560618,34.3317863h8.9908688c2.9296381,0,5.3068551,2.4518253,5.3068551,5.470067v9.2678046c0,3.0200343-2.3790096,5.4700636-5.3068551,5.4700636h-8.9908688c-2.9299973,0-5.3068551-2.4518219-5.3068551-5.4700636v-9.2678046c0-3.0200343,2.3790096-5.470067,5.3068551-5.470067Z"/>
</svg>