<?xml version="1.0" encoding="UTF-8"?>
<svg id="Layer_1" xmlns="http://www.w3.org/2000/svg" version="1.1" viewBox="0 0 152 30">
  <!-- Generator: Adobe Illustrator 29.3.1, SVG Export Plug-In . SVG Version: 2.1.0 Build 151)  -->
  <defs>
    <style>
      .st0 {
        fill: #fff;
      }
    </style>
  </defs>
  <path class="st0" d="M0,25.2189999c0,3.8859997,2.0650001,4.7810001,4.2129998,4.7810001,4.5440001,0,7.9600005-3.9979992,9.9969993-7.1569996-.2480001.698-.3859997,1.3969994-.3859997,2.0690002,0,1.8449993,1.0469999,3.1590004,3.1119995,3.1590004,2.8369999,0,5.8659992-2.5170002,7.4359989-5.2290001-.1100006.3920002-.1650009.7549992-.1650009,1.0900002,0,1.2870007.7159996,2.0979996,2.1749992,2.0979996,4.6000004,0,9.2259979-8.2479992,9.2259979-15.4619999C35.6079941,4.9480009,32.7979927.000001,25.7479935.000001c-12.3909931-.000001-25.7479935,15.3219985-25.7479935,25.2189989ZM21.4799995,9.9530001c0-1.3979998.7709999-2.3759999,1.8999996-2.3759999,1.1019993,0,1.8729992.9780002,1.8729992,2.3759999s-.7700005,2.4049997-1.8719997,2.4049997c-1.1299992,0-1.8999996-1.007-1.8999996-2.4049997h-.0009995ZM27.3740005,9.9530001c0-1.3979998.7700005-2.3759999,1.8999996-2.3759999,1.1009998,0,1.8719997.9780002,1.8719997,2.3759999s-.7700005,2.4049997-1.8719997,2.4049997c-1.1299992,0-1.8999996-1.007-1.8999996-2.4049997ZM41.1150017,26.9529991h4.1300011v-3.7749996c0-1.9850006-.137001-2.907999-.9360008-4.7250004l.4399986-.2240009c1.322998,3.0480003,3.2779999,4.25,5.3160019,4.25,3.2770004,0,5.8930016-2.907999,5.8930016-7.4099998,0-4.3050003-2.3959999-7.4640002-5.8380013-7.4640002-2.038002,0-4.0480003,1.1740003-5.3699989,4.2219996l-.4399986-.224c.5499992-1.2019997.9350014-2.4040003.9350014-3.5500002h-4.1300011s0,18.8999996-.0000038,18.9000015ZM45.2450027,15.0419989c0-1.8450003,1.3779984-3.8859997,3.4150009-3.8859997,1.6529999,0,3.0019989,1.3699999,3.0019989,3.8579998,0,2.46-1.2939987,3.9140005-3.0299988,3.9140005-1.927002,0-3.3860016-1.9850006-3.3860016-3.8859997l-.0009995-.000001ZM57.25,22.0319996h4.132v-4.921999c0-3.467,1.2109985-5.927,3.4699974-5.927,1.4309998,0,1.8720016.9779997,1.8720016,3.4099998v7.4379997h4.1309967v-8.1079998c0-4.4180002-1.5699997-6.3200002-4.5719986-6.3200002-3.0559998,0-4.0480003,2.098-5.2319984,4.5019994l-.4399986-.2510004c.6049995-1.5100002.7700005-2.46.7700005-3.8030005V3.3269999h-4.1300011v18.7049997h-.0009995ZM76.7570038,22.4790001c2.6169968,0,4.185997-1.7900009,5.288002-3.9139996l.4680023.2509995c-.4400024,1.007-.8539963,2.210001-.8539963,3.2159996h4.048996v-7.6049995c0-4.5300007-1.8730011-6.822-6.2519989-6.822-4.2959976,0-6.4160004,2.1799998-6.8300018,4.473l3.9660034.6999998c.1380005-1.2030001,1.1019974-2.0139999,2.6439972-2.0139999s2.4229965.783,2.4229965,1.7340002c0,.9499998-.9079971,1.3979998-3.3320007,1.4259996-3.5800018.0559998-6.223999,1.3699999-6.223999,4.1660004,0,2.2919998,1.7900009,4.3889999,4.6539993,4.3889999ZM76.2070007,17.8380013c0-2.2650003,3.4420013-.6709995,5.3700027-2.4049997v.5319996c0,1.9849997-1.7630005,3.4100008-3.4150009,3.4100008-.935997,0-1.9550018-.3899994-1.9550018-1.5370007ZM87.5599976,22.0319996h4.1299973v-4.921999c0-3.467,1.211998-5.927,3.4700012-5.927,1.4319992,0,1.8730011.9779997,1.8730011,3.4099998v7.4379997h4.1309967v-8.1079998c0-4.4180002-1.5699997-6.3200002-4.5719986-6.3200002-3.0559998,0-4.0479965,2.098-5.2320023,4.5019994l-.4400024-.2510004c.6050034-1.5100002.7699966-2.46.7699966-3.8030005h-4.1299973v13.9799995l.0000076.0010014ZM112.3280029,22.0879993v-3.4679985c-.8820038.3069992-3.3330002.8379993-3.3330002-1.2019997v-5.9559994h3.663002v-3.4099998h-3.663002v-3.7470021l-4.1579971,1.2579999v2.4879999h-2.4779968v3.4110003h2.4779968l.0279999,6.2910004c0,4.6700001,4.1029968,5.3400002,7.4629974,4.3339996v.0009995ZM120.987999,22.4790001c4.1849976,0,7.3799973-3.243,7.3799973-7.4650002,0-4.1940002-3.1949997-7.4099998-7.3799973-7.4099998-4.185997,0-7.4079971,3.2159996-7.4079971,7.4099998,0,4.2220001,3.2220001,7.4650002,7.4079971,7.4650002ZM117.8479996,15.0419998c0-2.3199997,1.2939987-3.9419994,3.1399994-3.9419994,1.8450012,0,3.1110001,1.6210003,3.1110001,3.9419994,0,2.3199997-1.2659988,3.9419994-3.1110001,3.9419994-1.8460007,0-3.1399994-1.6219997-3.1399994-3.9419994ZM129.7290039,22.0319996h4.1300049v-4.921999c0-3.6070004,1.0189972-5.927,2.8370056-5.927,1.1840057,0,1.6799927.9499998,1.6799927,3.4099998v7.4379997h4.1309967v-4.9209995c0-3.3829994,1.1009979-5.927,2.8359985-5.927,1.1569977,0,1.6799927,1.0900002,1.6799927,3.4099998v7.4379997h4.1309967v-8.1079998c0-4.4460001-1.4320068-6.3200002-4.2409973-6.3200002-2.9190063,0-4.076004,2.0140004-4.8470001,4.4459996l-.4680023-.2510004c.4129944-1.4539995.1649933-2.2370005-.3309937-2.8520002-.7160034-.8950005-1.7350006-1.342-3.029007-1.342-2.5890045,0-3.7180023,1.8450003-4.7089996,4.4169998l-.4409943-.2799997c.4680023-1.257.7709961-2.2639999.7709961-3.6900005h-4.1300049v13.9799995l.0000153.0010014Z"/>
</svg>