<?xml version="1.0" encoding="UTF-8"?>
<svg id="Layer_1" xmlns="http://www.w3.org/2000/svg" version="1.1" viewBox="0 0 383 128">
  <!-- Generator: Adobe Illustrator 29.3.1, SVG Export Plug-In . SVG Version: 2.1.0 Build 151)  -->
  <defs>
    <style>
      .st0 {
        fill: #fff;
      }
    </style>
  </defs>
  <path class="st0" d="M327.2619934,119.9400024v8.0579987h55.3080139v-36.3432007h-8.059021v28.285202h-47.2489929ZM327.2619934,0v8.0584402h47.2489929v28.2867594h8.059021V0h-55.3080139ZM298.7399902,62.3410988v-18.7252998h12.6419983c6.1640015,0,8.3760071,2.0538025,8.3760071,7.6645012v3.3179016c0,5.767498-2.1340027,7.742897-8.3760071,7.742897h-12.6419983ZM318.8080139,65.6588974c5.7669983-1.5010986,9.79599-6.8746986,9.79599-13.2732964,0-4.0292015-1.57901-7.6645012-4.5809937-10.5884018-3.7929993-3.6352997-8.8510132-5.4519997-15.40802-5.4519997h-17.7769775v55.3077011h7.9019775v-22.0431976h11.8520203c6.0829773,0,8.5329895,2.5280991,8.5329895,8.8501968v13.1949005h8.0589905v-11.9309006c0-8.6913986-2.0539856-12.009201-8.3759766-12.9577026v-1.1072998ZM252.2819977,67.4756012h24.3360138v-7.2686005h-24.3360138v-16.5931015h26.7060089v-7.2686996h-34.7660065v55.3077011h35.951004v-7.2686996h-27.8910065v-16.9085999ZM225.8119965,70.399498v3.792099c0,7.9801025-2.923996,10.5884018-10.2709961,10.5884018h-1.7380066c-7.348999,0-10.9039917-2.3712006-10.9039917-13.3535995v-14.8546982c0-11.0608025,3.7140045-13.3535995,11.0610046-13.3535995h1.5789948c7.1909943,0,9.4819946,2.6866989,9.5599976,10.1140976h8.6920013c-.7899933-10.9039001-8.0590057-17.7766991-18.9629974-17.7766991-5.2929993,0-9.7180023,1.6598015-13.0359955,4.8190002-4.9780121,4.6622009-7.7430115,12.5638008-7.7430115,23.6245995,0,10.6668015,2.3710022,18.5683975,7.2689972,23.4657974,3.3180084,3.239502,7.901001,4.9776993,12.405014,4.9776993,4.7399902,0,9.0869904-1.8969955,11.2979889-6.0045929h1.105011v5.2148972h7.2689972v-28.5219994h-21.4120026v7.2685966h13.8289948ZM156.1260071,43.6138992h8.6129913c8.1390076,0,12.5639954,2.0538025,12.5639954,13.1165009v14.5373001c0,11.0607986-4.4249878,13.1165009-12.5639954,13.1165009h-8.6129913v-40.7703018ZM165.4490051,91.6548004c15.0919952,0,20.6999969-11.456604,20.6999969-27.653801,0-16.4343987-6.0039978-27.6539001-20.8590088-27.6539001h-17.0669861v55.3077011h17.2259979ZM110.0630035,67.4756012h24.3359985v-7.2686005h-24.3359985v-16.5931015h26.7050018v-7.2686996h-34.7660065v55.3077011h35.9519958v-7.2686996h-27.8909912v-16.9085999ZM63.4463997,36.3451996h-8.0584984v55.3077011h36.3452988v-7.2686996h-28.2868004v-48.0390015ZM0,91.6548004v36.3451996h55.3075981v-8.0599976H8.0584402v-28.285202H0ZM0,0v36.3451996h8.0584402V8.0584402h47.2491579V0H0Z"/>
</svg>